<?xml version="1.0" encoding="utf-8"?><svg viewBox="0 0 502.66 502.66" xmlns="http://www.w3.org/2000/svg" xmlns:xlink="http://www.w3.org/1999/xlink"><style>:root>svg{display:none}:root>svg:target{display:block}</style><svg viewBox="0 0 5 5" id="dot" xmlns="http://www.w3.org/2000/svg"><circle cx="2.5" cy="2.5" r="2.5"/></svg><svg viewBox="0 0 502.664 502.664" id="icon" xmlns="http://www.w3.org/2000/svg"><path d="M153.821 358.226L0 274.337v-46.463l153.821-83.414v54.574L46.636 250.523l107.185 53.431v54.272zm26.273 29.358L282.103 115.08h32.227L212.084 387.584h-31.99zm168.749-29.358v-54.272l107.164-52.999-107.164-52.59v-53.927l153.821 83.522v46.183l-153.821 84.083z"/></svg><svg viewBox="0 0 83 58" id="quote" xmlns="http://www.w3.org/2000/svg"><path d="M20.134 58c-3.425 0-6.506-.606-9.245-1.819-2.603-1.347-4.657-3.166-6.164-5.456-1.37-2.021-2.534-4.581-3.492-7.68C.41 39.812 0 36.376 0 32.74c0-6.737 1.712-13.001 5.136-18.795C8.697 8.016 14.176 3.368 21.572 0l1.849 3.638c-3.698 1.616-6.985 4.041-9.862 7.275-2.876 3.099-4.725 6.4-5.547 9.902-.958 3.368-1.095 6.602-.41 9.7 3.287-3.637 7.806-5.456 13.559-5.456 5.067 0 9.176 1.415 12.327 4.244 3.15 2.83 4.725 6.871 4.725 12.126 0 4.984-1.712 9.026-5.136 12.125C29.79 56.518 25.475 58 20.134 58zm44.787 0c-3.424 0-6.506-.606-9.245-1.819-2.603-1.347-4.657-3.166-6.164-5.456-1.37-2.021-2.533-4.581-3.492-7.68-.822-3.233-1.233-6.669-1.233-10.306 0-6.737 1.712-13.001 5.136-18.795C53.484 8.016 58.963 3.368 66.36 0l1.849 3.638c-3.698 1.616-6.985 4.041-9.861 7.275-2.877 3.099-4.726 6.4-5.547 9.902-.96 3.368-1.096 6.602-.411 9.7 3.287-3.637 7.807-5.456 13.56-5.456 5.067 0 9.176 1.415 12.326 4.244C81.425 32.133 83 36.174 83 41.43c0 4.984-1.712 9.026-5.136 12.125C74.577 56.518 70.262 58 64.92 58z"/></svg></svg>